<svg width="168" height="42" viewBox="0 0 168 42" fill="none" xmlns="http://www.w3.org/2000/svg">
<path d="M19.3063 0.469424C17.0063 1.59442 16.7563 4.56942 18.8313 6.19442C19.2063 6.49442 19.7063 6.71942 19.9813 6.71942C20.4063 6.71942 20.4313 6.91942 20.3813 10.3694L20.3063 14.0444L19.2563 14.3444C18.6563 14.5194 17.7813 14.9194 17.2813 15.2194L16.3563 15.7444L13.8063 13.2194L11.2563 10.6944L11.6313 9.56942C11.9563 8.56942 11.9563 8.34442 11.5813 7.36942C11.0813 6.09442 10.7813 5.76942 9.53128 5.34442C8.23128 4.89442 6.98128 5.24442 5.98128 6.31942C5.33128 7.06942 5.18128 7.41942 5.18128 8.36942C5.18128 9.84442 5.88128 11.0194 7.10628 11.5944C8.03128 12.0444 8.78128 11.9694 10.1813 11.3694C10.4313 11.2694 11.3563 12.0194 13.1563 13.8194L15.7313 16.4194L15.1813 17.1694C14.8563 17.5944 14.4813 18.4694 14.3063 19.1444L14.0063 20.3444L10.4813 20.4194L6.95628 20.4944L6.45628 19.4944C5.73128 18.1194 4.83128 17.4694 3.58128 17.4694C-0.093716 17.4694 -1.34372 21.7944 1.75628 23.7444C3.33128 24.7444 5.83128 23.8694 6.45628 22.0944L6.78128 21.2194H10.4813H14.1813V21.8194C14.1813 22.1444 14.5313 23.0694 14.9313 23.8694L15.7063 25.3194L13.1563 27.8694C10.6063 30.4194 10.6063 30.4444 9.90628 30.0694C7.78128 28.9944 5.18128 30.5694 5.18128 32.9444C5.18128 36.5944 9.53128 37.7694 11.4313 34.6694C12.0063 33.6944 12.0313 33.1944 11.5563 31.8444L11.1813 30.8444L13.6813 28.3694L16.1563 25.8694L17.3563 26.5194C18.0063 26.8944 18.9813 27.2444 19.5063 27.3444L20.4313 27.5194V31.1194V34.7194L19.6063 35.0694C18.3313 35.5944 17.4313 36.8194 17.4313 37.9944C17.4313 40.0444 18.7563 41.4694 20.6563 41.4694C24.4313 41.4694 25.5063 36.8194 22.1063 35.1444L21.1813 34.6694V31.0944V27.5194L22.0063 27.3444C22.4313 27.2444 23.3563 26.8694 24.0063 26.5194L25.2063 25.8694L27.7313 28.4194C30.1563 30.8194 30.2563 30.9694 29.9813 31.5944C29.3063 33.0944 29.9063 35.0944 31.3063 35.9694C33.4313 37.2944 36.4313 35.6944 36.4313 33.2694C36.4313 30.6944 33.8563 28.9694 31.7063 30.0694C31.0063 30.4444 31.0063 30.4194 28.4563 27.8694L25.8813 25.2694L26.5063 24.1944C26.8563 23.5944 27.2313 22.6694 27.3063 22.1444L27.4813 21.2194H31.2063C34.8313 21.2194 34.9313 21.2444 34.9313 21.7444C34.9313 22.4194 36.3813 23.8944 37.2563 24.1194C38.9563 24.5194 41.0563 23.3194 41.3813 21.7194C41.6813 20.2944 41.4563 19.5194 40.4313 18.4194C39.4813 17.4194 39.4063 17.4194 38.0563 17.5194C36.5063 17.6444 35.6063 18.2694 35.0063 19.6694L34.6813 20.4944L31.1313 20.4194L27.6063 20.3444L27.2813 19.3444C27.0813 18.7944 26.6813 17.8694 26.3813 17.2694L25.8063 16.2194L28.3063 13.7194L30.8063 11.2194L31.8813 11.6194C33.2563 12.1694 34.5813 11.8194 35.6563 10.5944C37.4563 8.54442 35.9813 5.21942 33.2563 5.21942C30.5813 5.21942 29.0813 7.36942 29.9813 9.89442L30.2813 10.7444L27.7813 13.2444L25.2563 15.7694L24.1813 15.0944C23.5813 14.7194 22.6563 14.3444 22.1313 14.2944L21.1813 14.1444V10.4944V6.84442L22.1813 6.41942C24.6563 5.39442 24.8063 2.11942 22.4563 0.544424C21.4063 -0.155576 20.6063 -0.180576 19.3063 0.469424Z" fill="white"/>
<path d="M48.744 19.988V24.83C48.744 25.262 48.648 25.568 48.456 25.748C48.276 25.916 48 26 47.628 26C47.076 26 46.8 25.7 46.8 25.1V14.138C46.8 13.538 47.076 13.238 47.628 13.238H53.748C54.096 13.238 54.36 13.28 54.54 13.364C54.732 13.448 54.828 13.628 54.828 13.904V15.29C54.828 15.89 54.57 16.19 54.054 16.19C53.718 16.19 53.46 16.106 53.28 15.938C53.1 15.758 53.01 15.452 53.01 15.02V14.192H48.744V18.998H52.524C52.86 18.998 53.028 19.166 53.028 19.502C53.028 19.826 52.86 19.988 52.524 19.988H48.744ZM57.2417 22.94C57.2417 23.648 57.3917 24.134 57.6917 24.398C58.0037 24.662 58.3637 24.794 58.7717 24.794C59.1077 24.794 59.4497 24.704 59.7977 24.524C60.1577 24.344 60.4577 24.098 60.6977 23.786C60.9377 23.462 61.0577 23.108 61.0577 22.724V18.26C61.0577 17.72 61.1477 17.372 61.3277 17.216C61.5197 17.048 61.8137 16.964 62.2097 16.964C62.4977 16.964 62.6897 17.036 62.7857 17.18C62.8817 17.324 62.9297 17.534 62.9297 17.81V25.226C62.9297 25.514 62.8697 25.718 62.7497 25.838C62.6297 25.946 62.4317 26 62.1557 26C61.8317 26 61.5737 25.886 61.3817 25.658C61.1897 25.43 61.0937 25.028 61.0937 24.452V24.326H61.0577C60.7577 24.806 60.3437 25.208 59.8157 25.532C59.2877 25.844 58.6517 26 57.9077 26C56.2157 26 55.3697 25.094 55.3697 23.282V17.81C55.3697 17.534 55.4177 17.324 55.5137 17.18C55.6097 17.036 55.8017 16.964 56.0897 16.964C56.4857 16.964 56.7737 17.078 56.9537 17.306C57.1457 17.522 57.2417 17.9 57.2417 18.44V22.94ZM67.7731 24.776C67.7731 25.316 67.6771 25.658 67.4851 25.802C67.3051 25.934 67.0171 26 66.6211 26C66.3331 26 66.1411 25.928 66.0451 25.784C65.9491 25.628 65.9011 25.418 65.9011 25.154V13.166C65.9011 12.89 65.9491 12.68 66.0451 12.536C66.1411 12.392 66.3331 12.32 66.6211 12.32C67.0171 12.32 67.3051 12.434 67.4851 12.662C67.6771 12.878 67.7731 13.256 67.7731 13.796V24.776ZM72.7125 24.776C72.7125 25.316 72.6165 25.658 72.4245 25.802C72.2445 25.934 71.9565 26 71.5605 26C71.2725 26 71.0805 25.928 70.9845 25.784C70.8885 25.628 70.8405 25.418 70.8405 25.154V13.166C70.8405 12.89 70.8885 12.68 70.9845 12.536C71.0805 12.392 71.2725 12.32 71.5605 12.32C71.9565 12.32 72.2445 12.434 72.4245 12.662C72.6165 12.878 72.7125 13.256 72.7125 13.796V24.776ZM80.532 23.804C80.532 23.444 80.424 23.156 80.208 22.94C80.004 22.724 79.722 22.538 79.362 22.382C79.002 22.226 78.606 22.076 78.174 21.932C77.622 21.74 77.124 21.548 76.68 21.356C76.248 21.152 75.9 20.9 75.636 20.6C75.384 20.288 75.258 19.874 75.258 19.358C75.258 18.854 75.378 18.446 75.618 18.134C75.858 17.81 76.158 17.564 76.518 17.396C76.89 17.228 77.262 17.114 77.634 17.054C78.006 16.994 78.324 16.964 78.588 16.964C79.044 16.964 79.476 17 79.884 17.072C80.292 17.144 80.64 17.258 80.928 17.414C81.168 17.534 81.384 17.696 81.576 17.9C81.78 18.104 81.882 18.344 81.882 18.62C81.882 18.812 81.81 18.968 81.666 19.088C81.522 19.208 81.36 19.268 81.18 19.268C80.916 19.268 80.712 19.208 80.568 19.088C80.424 18.968 80.304 18.812 80.208 18.62C80.088 18.38 79.908 18.164 79.668 17.972C79.44 17.78 79.086 17.684 78.606 17.684C78.198 17.684 77.838 17.792 77.526 18.008C77.214 18.212 77.058 18.548 77.058 19.016C77.058 19.34 77.154 19.604 77.346 19.808C77.538 20.012 77.796 20.186 78.12 20.33C78.456 20.474 78.828 20.618 79.236 20.762C79.728 20.93 80.214 21.122 80.694 21.338C81.174 21.542 81.57 21.8 81.882 22.112C82.206 22.424 82.368 22.826 82.368 23.318C82.368 23.858 82.206 24.332 81.882 24.74C81.57 25.136 81.132 25.448 80.568 25.676C80.016 25.892 79.374 26 78.642 26C78.09 26 77.586 25.946 77.13 25.838C76.674 25.718 76.302 25.58 76.014 25.424C75.774 25.292 75.564 25.13 75.384 24.938C75.216 24.734 75.132 24.5 75.132 24.236C75.132 24.032 75.21 23.87 75.366 23.75C75.522 23.63 75.678 23.57 75.834 23.57C76.098 23.57 76.308 23.63 76.464 23.75C76.62 23.858 76.74 24.014 76.824 24.218C76.944 24.458 77.13 24.698 77.382 24.938C77.646 25.166 78.078 25.28 78.678 25.28C79.158 25.28 79.584 25.166 79.956 24.938C80.34 24.71 80.532 24.332 80.532 23.804ZM87.8425 26C87.1225 26 86.5645 25.874 86.1685 25.622C85.7725 25.37 85.4965 25.034 85.3405 24.614C85.1845 24.182 85.1065 23.696 85.1065 23.156V17.846H84.0265C83.7145 17.846 83.5585 17.708 83.5585 17.432C83.5585 17.276 83.6365 17.168 83.7925 17.108C83.9485 17.048 84.1465 16.964 84.3865 16.856C84.6385 16.736 84.9025 16.526 85.1785 16.226C85.4665 15.926 85.6645 15.662 85.7725 15.434C85.8925 15.206 85.9945 15.026 86.0785 14.894C86.1745 14.762 86.3125 14.696 86.4925 14.696C86.7085 14.696 86.8405 14.774 86.8885 14.93C86.9485 15.086 86.9785 15.338 86.9785 15.686V16.964H89.1565C89.2885 16.964 89.3905 17.012 89.4625 17.108C89.5465 17.192 89.5885 17.294 89.5885 17.414C89.5885 17.522 89.5465 17.624 89.4625 17.72C89.3905 17.804 89.2885 17.846 89.1565 17.846H86.9785V23.57C86.9785 24.194 87.0925 24.626 87.3205 24.866C87.5605 25.094 87.8065 25.208 88.0585 25.208C88.4185 25.208 88.6945 25.124 88.8865 24.956C89.0785 24.788 89.2285 24.59 89.3365 24.362C89.4565 24.134 89.5705 23.936 89.6785 23.768C89.7985 23.6 89.9605 23.516 90.1645 23.516C90.4765 23.516 90.6325 23.66 90.6325 23.948C90.6325 24.044 90.6025 24.164 90.5425 24.308C90.4825 24.452 90.4225 24.56 90.3625 24.632C90.0505 25.1 89.6725 25.448 89.2285 25.676C88.7845 25.892 88.3225 26 87.8425 26ZM97.4686 24.29C97.0726 24.878 96.6166 25.31 96.1006 25.586C95.5966 25.862 94.9966 26 94.3006 26C93.3886 26 92.7046 25.778 92.2486 25.334C91.8046 24.878 91.5826 24.29 91.5826 23.57C91.5826 23.186 91.6486 22.808 91.7806 22.436C91.9126 22.052 92.1466 21.71 92.4826 21.41C92.8186 21.11 93.2806 20.87 93.8686 20.69C94.4566 20.51 95.2066 20.42 96.1186 20.42H97.4326V19.916C97.4326 19.088 97.2886 18.512 97.0006 18.188C96.7246 17.852 96.2686 17.684 95.6326 17.684C95.2606 17.684 94.9426 17.762 94.6786 17.918C94.4266 18.074 94.2166 18.248 94.0486 18.44C93.8686 18.632 93.6886 18.788 93.5086 18.908C93.3286 19.016 93.1426 19.07 92.9506 19.07C92.7346 19.07 92.5726 19.01 92.4646 18.89C92.3686 18.758 92.3206 18.614 92.3206 18.458C92.3206 18.206 92.4166 18.008 92.6086 17.864C92.8006 17.708 93.0346 17.57 93.3106 17.45C93.7186 17.282 94.1686 17.162 94.6606 17.09C95.1646 17.006 95.6086 16.964 95.9926 16.964C96.8806 16.964 97.5646 17.09 98.0446 17.342C98.5246 17.582 98.8546 17.942 99.0346 18.422C99.2266 18.902 99.3226 19.502 99.3226 20.222V25.154C99.3226 25.418 99.2746 25.628 99.1786 25.784C99.0946 25.928 98.9086 26 98.6206 26C98.2246 26 97.9426 25.868 97.7746 25.604C97.6066 25.328 97.5226 24.896 97.5226 24.308L97.4686 24.29ZM96.4066 21.176C95.6386 21.176 95.0386 21.272 94.6066 21.464C94.1746 21.656 93.8746 21.914 93.7066 22.238C93.5386 22.562 93.4546 22.922 93.4546 23.318C93.4546 23.87 93.5986 24.254 93.8866 24.47C94.1746 24.686 94.5526 24.794 95.0206 24.794C95.3206 24.794 95.6566 24.722 96.0286 24.578C96.4126 24.422 96.7426 24.188 97.0186 23.876C97.3066 23.564 97.4506 23.168 97.4506 22.688V21.176H96.4066ZM108.231 23.732C108.351 23.6 108.501 23.534 108.681 23.534C108.777 23.534 108.867 23.57 108.951 23.642C109.047 23.702 109.095 23.792 109.095 23.912C109.095 24.128 109.017 24.332 108.861 24.524C108.525 24.932 108.099 25.28 107.583 25.568C107.079 25.856 106.419 26 105.603 26C104.607 26 103.809 25.808 103.209 25.424C102.609 25.028 102.177 24.488 101.913 23.804C101.661 23.12 101.535 22.352 101.535 21.5C101.535 20.384 101.727 19.496 102.111 18.836C102.495 18.176 103.005 17.702 103.641 17.414C104.289 17.114 105.009 16.964 105.801 16.964C106.593 16.964 107.295 17.144 107.907 17.504C108.159 17.66 108.387 17.852 108.591 18.08C108.795 18.308 108.897 18.578 108.897 18.89C108.897 19.118 108.813 19.292 108.645 19.412C108.477 19.532 108.309 19.592 108.141 19.592C107.865 19.592 107.655 19.526 107.511 19.394C107.367 19.25 107.253 19.064 107.169 18.836C107.073 18.548 106.923 18.284 106.719 18.044C106.527 17.804 106.209 17.684 105.765 17.684C105.261 17.684 104.841 17.798 104.505 18.026C104.169 18.254 103.911 18.65 103.731 19.214C103.563 19.766 103.479 20.528 103.479 21.5C103.479 22.676 103.647 23.588 103.983 24.236C104.319 24.884 104.925 25.208 105.801 25.208C106.293 25.208 106.689 25.124 106.989 24.956C107.289 24.776 107.535 24.572 107.727 24.344C107.919 24.104 108.087 23.9 108.231 23.732ZM112.771 20.978L115.219 18.746C115.711 18.29 116.155 17.882 116.551 17.522C116.959 17.15 117.373 16.964 117.793 16.964C118.009 16.964 118.147 17.018 118.207 17.126C118.279 17.234 118.315 17.342 118.315 17.45C118.315 17.714 118.153 17.942 117.829 18.134C117.517 18.314 117.079 18.596 116.515 18.98C116.155 19.208 115.801 19.472 115.453 19.772C115.117 20.06 114.727 20.378 114.283 20.726C114.883 21.446 115.513 22.184 116.173 22.94C116.833 23.696 117.445 24.41 118.009 25.082C118.105 25.202 118.183 25.31 118.243 25.406C118.303 25.49 118.333 25.574 118.333 25.658C118.333 25.742 118.285 25.82 118.189 25.892C118.105 25.964 117.865 26 117.469 26C117.037 26 116.731 25.946 116.551 25.838C116.383 25.73 116.233 25.598 116.101 25.442C115.597 24.83 115.081 24.2 114.553 23.552C114.025 22.892 113.497 22.25 112.969 21.626L112.771 21.842V24.722C112.771 25.262 112.675 25.61 112.483 25.766C112.303 25.922 112.015 26 111.619 26C111.331 26 111.139 25.928 111.043 25.784C110.947 25.628 110.899 25.418 110.899 25.154V13.166C110.899 12.89 110.947 12.68 111.043 12.536C111.139 12.392 111.331 12.32 111.619 12.32C112.015 12.32 112.303 12.434 112.483 12.662C112.675 12.878 112.771 13.256 112.771 13.796V20.978ZM132.958 22.634C133.474 22.634 133.732 22.934 133.732 23.534V25.424C133.732 25.64 133.636 25.79 133.444 25.874C133.264 25.958 133 26 132.652 26H126.712C126.16 26 125.884 25.7 125.884 25.1V14.138C125.884 13.802 125.944 13.568 126.064 13.436C126.196 13.304 126.4 13.238 126.676 13.238C127.444 13.238 127.828 13.7 127.828 14.624V25.046H131.914V23.804C131.914 23.372 132.004 23.072 132.184 22.904C132.364 22.724 132.622 22.634 132.958 22.634ZM141.027 24.29C140.631 24.878 140.175 25.31 139.659 25.586C139.155 25.862 138.555 26 137.859 26C136.947 26 136.263 25.778 135.807 25.334C135.363 24.878 135.141 24.29 135.141 23.57C135.141 23.186 135.207 22.808 135.339 22.436C135.471 22.052 135.705 21.71 136.041 21.41C136.377 21.11 136.839 20.87 137.427 20.69C138.015 20.51 138.765 20.42 139.677 20.42H140.991V19.916C140.991 19.088 140.847 18.512 140.559 18.188C140.283 17.852 139.827 17.684 139.191 17.684C138.819 17.684 138.501 17.762 138.237 17.918C137.985 18.074 137.775 18.248 137.607 18.44C137.427 18.632 137.247 18.788 137.067 18.908C136.887 19.016 136.701 19.07 136.509 19.07C136.293 19.07 136.131 19.01 136.023 18.89C135.927 18.758 135.879 18.614 135.879 18.458C135.879 18.206 135.975 18.008 136.167 17.864C136.359 17.708 136.593 17.57 136.869 17.45C137.277 17.282 137.727 17.162 138.219 17.09C138.723 17.006 139.167 16.964 139.551 16.964C140.439 16.964 141.123 17.09 141.603 17.342C142.083 17.582 142.413 17.942 142.593 18.422C142.785 18.902 142.881 19.502 142.881 20.222V25.154C142.881 25.418 142.833 25.628 142.737 25.784C142.653 25.928 142.467 26 142.179 26C141.783 26 141.501 25.868 141.333 25.604C141.165 25.328 141.081 24.896 141.081 24.308L141.027 24.29ZM139.965 21.176C139.197 21.176 138.597 21.272 138.165 21.464C137.733 21.656 137.433 21.914 137.265 22.238C137.097 22.562 137.013 22.922 137.013 23.318C137.013 23.87 137.157 24.254 137.445 24.47C137.733 24.686 138.111 24.794 138.579 24.794C138.879 24.794 139.215 24.722 139.587 24.578C139.971 24.422 140.301 24.188 140.577 23.876C140.865 23.564 141.009 23.168 141.009 22.688V21.176H139.965ZM147.505 18.62H147.541C147.781 18.2 148.117 17.822 148.549 17.486C148.993 17.138 149.593 16.964 150.349 16.964C150.745 16.964 151.123 17.024 151.483 17.144C151.855 17.252 152.185 17.45 152.473 17.738C152.773 18.026 153.007 18.44 153.175 18.98C153.343 19.508 153.427 20.192 153.427 21.032C153.427 22.664 153.043 23.9 152.275 24.74C151.507 25.58 150.463 26 149.143 26C148.711 26 148.291 25.964 147.883 25.892C147.487 25.808 147.133 25.706 146.821 25.586C146.533 25.478 146.263 25.322 146.011 25.118C145.759 24.902 145.633 24.536 145.633 24.02V13.166C145.633 12.89 145.681 12.68 145.777 12.536C145.873 12.392 146.065 12.32 146.353 12.32C146.749 12.32 147.037 12.434 147.217 12.662C147.409 12.878 147.505 13.256 147.505 13.796V18.62ZM147.487 24.326C147.487 24.566 147.625 24.788 147.901 24.992C148.189 25.184 148.603 25.28 149.143 25.28C149.611 25.28 150.019 25.148 150.367 24.884C150.715 24.62 150.985 24.188 151.177 23.588C151.381 22.988 151.483 22.184 151.483 21.176C151.483 20.324 151.399 19.688 151.231 19.268C151.063 18.836 150.841 18.548 150.565 18.404C150.289 18.248 149.977 18.17 149.629 18.17C149.329 18.17 149.011 18.266 148.675 18.458C148.339 18.65 148.057 18.902 147.829 19.214C147.601 19.526 147.487 19.856 147.487 20.204V24.326ZM160.671 23.804C160.671 23.444 160.563 23.156 160.347 22.94C160.143 22.724 159.861 22.538 159.501 22.382C159.141 22.226 158.745 22.076 158.313 21.932C157.761 21.74 157.263 21.548 156.819 21.356C156.387 21.152 156.039 20.9 155.775 20.6C155.523 20.288 155.397 19.874 155.397 19.358C155.397 18.854 155.517 18.446 155.757 18.134C155.997 17.81 156.297 17.564 156.657 17.396C157.029 17.228 157.401 17.114 157.773 17.054C158.145 16.994 158.463 16.964 158.727 16.964C159.183 16.964 159.615 17 160.023 17.072C160.431 17.144 160.779 17.258 161.067 17.414C161.307 17.534 161.523 17.696 161.715 17.9C161.919 18.104 162.021 18.344 162.021 18.62C162.021 18.812 161.949 18.968 161.805 19.088C161.661 19.208 161.499 19.268 161.319 19.268C161.055 19.268 160.851 19.208 160.707 19.088C160.563 18.968 160.443 18.812 160.347 18.62C160.227 18.38 160.047 18.164 159.807 17.972C159.579 17.78 159.225 17.684 158.745 17.684C158.337 17.684 157.977 17.792 157.665 18.008C157.353 18.212 157.197 18.548 157.197 19.016C157.197 19.34 157.293 19.604 157.485 19.808C157.677 20.012 157.935 20.186 158.259 20.33C158.595 20.474 158.967 20.618 159.375 20.762C159.867 20.93 160.353 21.122 160.833 21.338C161.313 21.542 161.709 21.8 162.021 22.112C162.345 22.424 162.507 22.826 162.507 23.318C162.507 23.858 162.345 24.332 162.021 24.74C161.709 25.136 161.271 25.448 160.707 25.676C160.155 25.892 159.513 26 158.781 26C158.229 26 157.725 25.946 157.269 25.838C156.813 25.718 156.441 25.58 156.153 25.424C155.913 25.292 155.703 25.13 155.523 24.938C155.355 24.734 155.271 24.5 155.271 24.236C155.271 24.032 155.349 23.87 155.505 23.75C155.661 23.63 155.817 23.57 155.973 23.57C156.237 23.57 156.447 23.63 156.603 23.75C156.759 23.858 156.879 24.014 156.963 24.218C157.083 24.458 157.269 24.698 157.521 24.938C157.785 25.166 158.217 25.28 158.817 25.28C159.297 25.28 159.723 25.166 160.095 24.938C160.479 24.71 160.671 24.332 160.671 23.804Z" fill="white"/>
</svg>
